<?xml version="1.0" encoding="UTF-8"?>
<svg id="_图层_1" data-name="图层 1" xmlns="http://www.w3.org/2000/svg" viewBox="0 0 138.47 24.48">
  <defs>
    <style>
      .cls-1 {
        fill: #222;
      }

      .cls-1, .cls-2, .cls-3 {
        stroke-width: 0px;
      }

      .cls-2 {
        fill: #0d0c22;
      }

      .cls-3 {
        fill: #fd0;
      }
    </style>
  </defs>
  <path class="cls-2" d="m14.85,5.58h-.02s-.04-.02-.04-.02c.02.01.03.02.05.02Z"/>
  <path class="cls-2" d="m15.08,7.3h-.02s.02,0,.02,0Z"/>
  <path class="cls-2" d="m14.85,5.58s0,0,0,0c0,0,0,0,0,0,0,0,0,0,0,0Z"/>
  <path class="cls-2" d="m14.85,5.58h0s0,0,0,0Z"/>
  <path class="cls-2" d="m15.07,7.29l.03-.02h.01s0-.02,0-.02c-.02,0-.03.02-.05.03Z"/>
  <path class="cls-2" d="m14.89,5.62l-.03-.03h-.02s.03.02.05.03Z"/>
  <path class="cls-2" d="m8.07,22.26s-.04.02-.06.04h.02s.03-.03.04-.04Z"/>
  <path class="cls-2" d="m12.03,21.48s-.01-.02,0,.07c0,0,0-.01,0-.02,0-.02,0-.03,0-.05Z"/>
  <path class="cls-2" d="m11.62,22.26s-.04.02-.06.04h.02s.03-.03.04-.04Z"/>
  <path class="cls-2" d="m5.28,22.44s-.04-.02-.06-.03c.02,0,.03.02.05.02h.01Z"/>
  <path class="cls-2" d="m4.65,21.84s-.01-.05-.02-.07c0,.02.02.05.02.07h0Z"/>
  <path class="cls-3" d="m8.87,11.09c-.86.37-1.84.79-3.11.79-.53,0-1.06-.07-1.57-.22l.88,9c.03.38.2.73.48.98.28.26.64.4,1.02.4,0,0,1.24.06,1.66.06.45,0,1.79-.06,1.79-.06.38,0,.74-.14,1.02-.4.28-.26.45-.61.48-.98l.94-9.95c-.42-.14-.84-.24-1.32-.24-.83,0-1.49.28-2.26.61Z"/>
  <path class="cls-2" d="m1.48,7.25h.01s0,.02,0,.02c0,0-.02-.01-.02-.02Z"/>
  <path class="cls-2" d="m16.5,6.41l-.13-.67c-.12-.6-.39-1.16-1-1.38-.2-.07-.42-.1-.57-.24-.15-.14-.2-.37-.23-.57-.06-.38-.13-.76-.19-1.13-.06-.32-.1-.69-.25-.99-.19-.4-.6-.63-1-.79-.2-.08-.41-.14-.63-.19-1-.26-2.05-.36-3.08-.42-1.23-.07-2.47-.05-3.7.06-.92.08-1.88.18-2.75.5-.32.12-.65.26-.89.5-.3.3-.39.77-.18,1.15.15.27.41.46.69.58.36.16.74.28,1.12.37,1.08.24,2.19.33,3.29.37,1.22.05,2.44,0,3.65-.12.3-.03.6-.07.9-.12.35-.05.58-.51.47-.83-.12-.38-.46-.53-.83-.47-.06,0-.11.02-.17.02h-.04c-.13.02-.26.04-.38.05-.26.03-.53.05-.79.07-.59.04-1.19.06-1.78.06-.58,0-1.17-.02-1.75-.05-.27-.02-.53-.04-.8-.07-.12-.01-.24-.03-.36-.04h-.11s-.02-.02-.02-.02l-.12-.02c-.24-.04-.48-.08-.72-.13-.02,0-.05-.02-.06-.04-.02-.02-.02-.04-.02-.07s0-.05.02-.07c.02-.02.04-.03.06-.04h0c.21-.04.42-.08.63-.11.07-.01.14-.02.21-.03h0c.13,0,.26-.03.39-.05,1.14-.12,2.28-.16,3.43-.12.56.02,1.11.05,1.66.1.12.01.24.03.36.04.05,0,.09.01.14.02h.09c.27.05.53.1.8.16.39.09.9.11,1.07.54.06.14.08.29.11.43l.04.18s0,0,0,0c.09.43.18.86.28,1.29,0,.03,0,.06,0,.1,0,.03-.02.06-.04.09-.02.03-.04.05-.07.07-.03.02-.06.03-.09.03h-.06s-.06.02-.06.02c-.18.02-.35.04-.53.06-.35.04-.7.07-1.05.1-.7.06-1.39.1-2.09.11-.36,0-.71.01-1.07.01-1.42,0-2.83-.08-4.24-.25-.15-.02-.3-.04-.46-.06.12.02-.09-.01-.13-.02-.1-.01-.19-.03-.29-.04-.33-.05-.65-.11-.97-.16-.39-.06-.77-.03-1.12.16-.29.16-.53.4-.68.7-.15.32-.2.66-.27,1-.07.34-.17.71-.13,1.05.09.75.61,1.37,1.37,1.5.71.13,1.43.23,2.15.32,2.82.35,5.67.39,8.5.12.23-.02.46-.05.69-.07.07,0,.14,0,.21.02.07.02.13.06.18.11.05.05.09.11.11.18.02.07.03.14.03.21l-.07.7c-.14,1.41-.29,2.82-.43,4.22-.15,1.48-.3,2.96-.45,4.43-.04.42-.09.83-.13,1.25-.04.41-.05.83-.12,1.24-.12.64-.55,1.03-1.18,1.17-.58.13-1.16.2-1.76.21-.66,0-1.31-.03-1.97-.02-.7,0-1.56-.06-2.1-.58-.47-.46-.54-1.17-.6-1.79-.09-.82-.17-1.64-.26-2.46l-.47-4.56-.31-2.95s-.01-.1-.02-.15c-.04-.35-.29-.7-.68-.68-.34.01-.72.3-.68.68l.23,2.19.47,4.52c.13,1.28.27,2.57.4,3.85.03.25.05.49.08.74.15,1.34,1.17,2.07,2.45,2.27.74.12,1.5.14,2.26.16.97.02,1.94.05,2.89-.12,1.41-.26,2.46-1.2,2.62-2.66.04-.42.09-.84.13-1.26.14-1.39.29-2.79.43-4.18l.47-4.55.21-2.09c.01-.1.05-.2.12-.28.07-.08.16-.13.27-.15.4-.08.79-.21,1.07-.52.46-.49.55-1.12.39-1.77Zm-15.15.45s0,.05-.01.07c0-.04,0-.07.01-.07Zm.04.3s.01.01.02.03c-.02-.01-.02-.02-.02-.03h0Zm.04.05s.02.04,0,0h0Zm.08.06h0s0,0,0,0c0,0,0,0,0,0h0Zm13.51-.09c-.14.14-.36.2-.58.23-2.42.36-4.87.54-7.31.46-1.75-.06-3.48-.25-5.21-.5-.17-.02-.35-.05-.47-.18-.22-.24-.11-.71-.05-1,.05-.26.15-.61.46-.65.48-.06,1.05.15,1.53.22.58.09,1.16.16,1.74.21,2.48.23,5,.19,7.47-.14.45-.06.9-.13,1.35-.21.4-.07.84-.21,1.08.21.16.28.19.66.16.97,0,.14-.07.27-.17.36h0Z"/>
  <path class="cls-1" d="m25.89,4.17c.07-.29.2-.49.39-.59.2-.11.4-.16.59-.14.21.02.39.09.55.2.16.11.23.25.23.41,0,.06,0,.12-.02.19-.01.05-.02.1-.02.16.64-.23,1.26-.38,1.86-.45.61-.08,1.17-.06,1.67.08.51.14.95.38,1.33.73.39.35.67.84.84,1.47.07.25.09.55.05.91-.04.34-.12.69-.23,1.03-.11.34-.26.66-.42.95-.16.29-.32.51-.48.64.39.12.72.33,1,.61.28.27.51.59.67.95.17.36.27.76.31,1.19.04.43.02.85-.08,1.28-.09.42-.29.81-.58,1.17-.29.35-.65.67-1.08.95-.43.28-.9.52-1.42.7-.52.19-1.05.32-1.59.39-.53.06-1.06.06-1.58,0-.52-.07-.99-.22-1.41-.45-.14.22-.3.37-.48.45-.18.09-.35.12-.52.09-.17-.03-.31-.12-.44-.28s-.2-.38-.23-.66c.09-.94.19-1.91.28-2.92.09-1.02.19-2.05.28-3.08.09-1.03.18-2.05.27-3.06.08-1.01.17-1.98.25-2.92Zm.73,10.84c.29.21.65.35,1.06.42.42.06.84.07,1.28.02.45-.06.89-.18,1.33-.34.44-.17.82-.38,1.14-.64.33-.27.59-.58.78-.94.19-.36.26-.77.2-1.2-.02-.16-.08-.31-.17-.45-.09-.15-.21-.28-.34-.41-.25-.22-.59-.35-1.03-.41-.43-.06-.89-.07-1.38-.02-.48.04-.95.12-1.41.23-.46.1-.84.21-1.14.31l-.33,3.42Zm.52-5.47c.07,0,.22,0,.45-.02.24-.01.52-.04.83-.08.32-.04.66-.1,1-.19.34-.09.67-.21.97-.36.31-.16.57-.34.78-.56.22-.23.35-.51.39-.83.05-.41.02-.74-.09-1-.11-.27-.29-.47-.53-.61-.23-.15-.5-.23-.81-.27-.3-.03-.61-.03-.94.02-.32.04-.64.11-.95.22-.3.1-.56.22-.78.36l-.31,3.31Zm8.25-1.17c.15-.26.32-.44.52-.53.21-.1.41-.13.59-.08.2.04.36.16.5.34.14.18.2.42.2.72-.03.12-.09.37-.17.75-.08.38-.18.81-.28,1.3-.09.49-.19,1.01-.28,1.56-.09.54-.16,1.04-.19,1.5-.03.46-.03.84.02,1.16.05.31.16.48.33.52.3.05.58-.06.84-.34.26-.28.5-.65.72-1.11.22-.47.42-.99.59-1.56.18-.57.33-1.12.45-1.64.14-.53.24-1,.33-1.41.08-.41.15-.68.19-.81.07-.26.17-.47.28-.64.12-.17.31-.3.56-.41.36-.04.65.04.84.23.21.19.32.46.33.83-.08.41-.18.84-.28,1.3-.1.46-.2.92-.3,1.38-.09.45-.17.89-.23,1.31-.06.42-.1.79-.12,1.12-.01.33,0,.61.05.84.05.23.15.38.3.44.33.05.63-.12.89-.52.27-.4.56-1.04.86-1.94.09-.23.23-.37.42-.42s.36-.04.52.05c.17.07.29.21.38.41.09.2.09.44,0,.72-.06.18-.14.39-.23.62-.09.23-.21.47-.34.72-.12.25-.27.5-.42.75-.16.25-.32.47-.5.67-.26.31-.55.54-.88.67-.32.12-.64.17-.95.12s-.61-.17-.89-.39c-.28-.22-.51-.53-.69-.92-.19.27-.38.52-.58.75-.19.23-.4.43-.64.59-.23.17-.49.29-.78.36-.28.08-.61.11-1,.09-.38-.02-.69-.12-.94-.31-.24-.19-.43-.43-.56-.72-.14-.29-.23-.61-.28-.95-.05-.35-.08-.71-.08-1.06s.01-.69.03-1c.03-.32.06-.59.08-.81.03-.28.08-.61.14-.98.07-.38.15-.76.22-1.14.08-.4.17-.78.25-1.14.08-.38.15-.7.2-.98Zm8.31,0c.1-.25.28-.41.52-.48.24-.07.47-.07.69,0,.22.06.39.2.52.41.12.2.12.45,0,.75-.08.25-.17.56-.27.92-.09.36-.18.75-.27,1.16-.07.41-.14.82-.19,1.23-.04.41-.06.78-.05,1.12.02.34.07.63.16.86.08.23.22.37.41.42.41.02.78-.06,1.12-.23.35-.19.68-.44.97-.77.3-.32.58-.69.83-1.11.25-.42.47-.84.67-1.28.21-.45.39-.89.55-1.31.17-.43.31-.81.44-1.16.15-.26.32-.44.52-.53.21-.1.41-.13.59-.08.2.04.36.16.5.34.14.18.2.41.2.7-.19.55-.33,1.11-.44,1.69-.09.57-.16,1.14-.19,1.7-.02.4-.03.79-.03,1.17.01.39.04.74.08,1.08.11-.06.27-.16.47-.3.21-.14.42-.3.64-.48.23-.19.45-.4.66-.62.21-.23.38-.47.52-.72.21-.25.41-.36.61-.34.21.02.38.11.52.27.15.16.23.34.27.56.04.22,0,.41-.11.56-.38.64-.85,1.24-1.42,1.81-.57.57-1.31,1.05-2.2,1.42.03.45.03.96,0,1.53-.03.57-.11,1.16-.23,1.75-.11.59-.28,1.16-.48,1.7-.2.55-.46,1.02-.78,1.41-.31.39-.68.66-1.11.83-.43.17-.92.16-1.48-.02-.54-.17-.93-.44-1.17-.83-.24-.39-.36-.84-.38-1.36,0-.51.1-1.06.3-1.66.2-.59.47-1.18.81-1.77.35-.57.76-1.11,1.22-1.62.47-.51.96-.95,1.48-1.31.01-.25.02-.48.02-.69,0-.22,0-.45.02-.69-.26.33-.57.66-.92.97-.34.3-.72.56-1.12.78-.41.22-.83.37-1.28.45-.45.08-.91.06-1.38-.06-.44-.12-.79-.35-1.05-.69-.25-.33-.43-.73-.55-1.19-.11-.47-.17-.98-.16-1.53.01-.56.06-1.12.14-1.69.09-.57.21-1.12.36-1.66.15-.53.31-1.01.48-1.44Zm5.47,9.83c-.24.2-.47.44-.69.73-.22.3-.42.61-.59.94-.17.32-.31.65-.44.97-.11.33-.19.63-.23.89-.04.26-.04.48,0,.66.04.18.14.28.3.3.2.03.38-.05.55-.25.18-.19.33-.44.47-.75.15-.31.27-.66.38-1.05.1-.38.18-.73.23-1.08.06-.34.09-.64.09-.89.01-.25-.01-.41-.06-.47Zm8.36-1.61c.15-.95.25-1.78.31-2.5.07-.72.11-1.34.12-1.88.01-.54,0-.99-.03-1.36-.02-.38-.05-.69-.09-.95-.04-.26-.09-.47-.14-.62-.04-.17-.07-.31-.08-.42-.02-.16-.01-.29.03-.41.05-.12.12-.23.2-.31.09-.08.2-.15.31-.19.11-.05.23-.08.34-.08.23,0,.41.04.53.11.12.07.22.18.28.33.07.14.12.31.14.52.03.2.06.43.08.7.14-.23.29-.46.47-.69.18-.24.38-.45.59-.64.22-.19.46-.34.72-.45.27-.12.56-.19.88-.19s.63.06.92.19c.29.11.55.28.78.5.24.21.44.46.59.75.17.28.29.59.38.92.23-.44.48-.85.75-1.25.28-.4.66-.7,1.12-.92.47-.22.91-.28,1.31-.19.41.09.76.29,1.06.58.31.28.56.64.73,1.08.18.43.27.88.27,1.34,0,.54-.04,1.11-.11,1.7-.06.59-.12,1.15-.17,1.66-.05.51-.07.94-.06,1.28.02.34.11.54.28.58.28.07.55-.01.81-.25.26-.24.49-.54.7-.89.22-.35.41-.71.56-1.08.17-.38.3-.67.39-.88.07-.18.19-.29.34-.33.17-.04.32-.03.47.03.16.06.28.18.38.34.1.16.14.35.11.58-.12.51-.3,1.02-.52,1.53-.22.51-.49.97-.83,1.39-.32.41-.71.73-1.17.98-.46.26-.98.39-1.58.39-.4,0-.72-.11-.98-.33-.25-.21-.45-.46-.59-.77-.15-.31-.24-.64-.3-.98-.05-.34-.08-.65-.08-.91,0-.38.02-.73.06-1.08.05-.34.11-.68.17-1,.06-.33.11-.65.16-.95.05-.31.08-.61.08-.91,0-.4-.05-.71-.14-.94-.08-.23-.21-.34-.38-.34-.32,0-.63.19-.92.58-.28.38-.54.86-.78,1.47-.23.59-.44,1.27-.62,2.03-.18.75-.32,1.5-.42,2.25-.03.26-.15.45-.34.56-.2.1-.41.15-.64.12-.22-.03-.42-.11-.61-.25-.18-.15-.27-.34-.27-.58.02-.14.05-.38.09-.73.05-.36.09-.78.12-1.23.04-.46.06-.93.06-1.42.01-.5-.02-.96-.09-1.38-.06-.42-.18-.76-.34-1.02-.16-.27-.38-.41-.67-.41-.24,0-.47.11-.69.34-.22.22-.43.52-.64.89-.2.38-.38.81-.55,1.3-.17.49-.32,1.01-.45,1.55-.12.54-.23,1.09-.33,1.64-.08.55-.14,1.07-.17,1.56-.03.26-.16.44-.38.55-.21.1-.43.15-.67.12-.24-.02-.45-.1-.64-.23s-.27-.31-.25-.53Zm20.12-6.95c-.02.52-.11,1.05-.28,1.58-.17.52-.41.99-.73,1.42-.32.42-.72.76-1.19,1.02-.46.25-.98.35-1.58.31.01.32.05.64.11.94.06.3.16.56.3.78.15.21.34.36.58.45.24.08.54.07.91-.05.36-.1.71-.28,1.05-.52.33-.24.63-.52.89-.83.27-.31.49-.64.67-.98.19-.35.32-.7.41-1.03.04-.18.14-.29.3-.33.16-.04.32-.04.48.02.18.05.32.15.44.28.12.12.17.27.12.44-.23.6-.46,1.14-.69,1.61-.22.47-.46.89-.73,1.25-.27.35-.58.66-.92.91-.33.25-.73.46-1.19.62-.61.22-1.18.31-1.7.28-.52-.02-.97-.16-1.36-.41-.39-.25-.69-.6-.92-1.06-.22-.46-.34-1.02-.38-1.67-.02-.31-.03-.69-.03-1.12.01-.45.04-.91.09-1.39.05-.49.14-.98.25-1.48s.27-.96.47-1.39c.2-.44.44-.82.73-1.14.3-.33.67-.57,1.09-.72.35-.12.7-.17,1.05-.14.34.03.65.14.91.33.27.19.48.45.64.8.16.33.23.74.22,1.23Zm-1.97-.41c-.15-.09-.29-.1-.44-.02-.14.07-.27.2-.39.39-.12.18-.23.39-.33.64-.09.25-.17.51-.23.78-.06.26-.11.51-.14.75-.03.24-.04.43-.02.58.48-.09.86-.29,1.14-.59.28-.3.47-.62.58-.97.11-.34.15-.67.11-.97-.03-.3-.12-.5-.28-.59Zm9.78,7.62c-.64,0-1.14-.18-1.52-.53-.36-.35-.62-.81-.77-1.36-.15-.56-.19-1.18-.14-1.86.06-.68.21-1.34.44-1.98.23-.66.53-1.26.89-1.81.38-.55.8-.97,1.28-1.27.48-.29,1-.42,1.56-.38.57.04,1.17.33,1.78.86.06-.19.2-.3.41-.33.21-.04.41-.02.61.06.21.07.38.2.52.39.14.18.16.4.08.66-.07.29-.17.65-.28,1.08-.11.42-.23.85-.34,1.31-.1.46-.2.92-.28,1.39-.07.46-.11.88-.11,1.25.01.36.07.67.17.92.1.24.29.37.55.39.31.02.6-.08.88-.31.28-.24.53-.54.73-.89.22-.35.4-.73.55-1.12.15-.4.24-.74.28-1.03.07-.27.19-.43.36-.47.18-.05.34-.04.5.05.17.08.3.21.39.39.1.17.12.33.05.48-.07.42-.22.9-.44,1.44-.22.53-.5,1.04-.84,1.53-.33.48-.71.89-1.14,1.22-.43.33-.89.5-1.38.5-.22,0-.45-.04-.69-.12-.23-.07-.45-.19-.67-.36-.21-.17-.4-.38-.56-.64-.17-.26-.29-.58-.36-.95-.09.11-.22.26-.39.44-.17.17-.36.33-.58.48-.22.16-.46.29-.72.41-.26.11-.53.17-.81.17Zm-.02-1.95c.33.03.62-.05.88-.23.26-.19.49-.44.69-.75.2-.32.36-.68.5-1.08.14-.4.24-.78.33-1.14.09-.38.17-.71.22-1.02.05-.31.09-.54.11-.67-.33-.28-.65-.43-.94-.44s-.56.07-.81.25c-.24.17-.45.41-.64.72s-.35.66-.48,1.03c-.12.36-.22.74-.28,1.12s-.09.74-.09,1.06c.01.32.06.59.14.8.09.21.22.32.39.34Zm16.69-3.89s-.04,0-.05-.02c-.11.25-.26.43-.45.55-.18.11-.36.16-.55.14-.19-.03-.36-.12-.51-.28-.15-.16-.25-.38-.3-.66,0-.14.01-.3.05-.5.03-.21.05-.41.06-.59.02-.2.02-.36-.01-.5-.03-.15-.11-.23-.25-.25-.24.14-.45.36-.63.69-.18.31-.32.67-.44,1.08-.11.4-.2.82-.25,1.27-.04.45-.06.88-.05,1.3.02.41.07.77.16,1.09.09.32.22.56.39.7.21.2.44.32.69.36.25.04.51.04.78-.02.23-.04.49-.12.78-.23.29-.11.58-.28.88-.5.3-.22.59-.5.86-.84.28-.34.53-.78.74-1.3.07-.16.2-.25.38-.28.19-.03.37-.01.55.06.18.06.32.17.42.33.1.16.11.35.03.58-.21.49-.47.93-.78,1.31-.3.39-.63.72-.99,1.02-.35.29-.72.54-1.11.75-.39.21-.76.38-1.12.52-.28.1-.58.18-.89.23-.31.06-.63.08-.95.05-.31-.03-.61-.11-.91-.23-.29-.14-.55-.34-.78-.62-.27-.32-.48-.72-.64-1.2-.15-.48-.24-.99-.28-1.53-.04-.54-.03-1.1.03-1.67.07-.57.19-1.11.34-1.62.17-.52.38-.99.62-1.41.26-.43.56-.76.89-1,.54-.36,1.07-.53,1.58-.5.52.02.93.25,1.24.69.24.03.43.15.58.36.15.21.19.45.12.72l-.22,1.98Zm6.7-3.31c.48-.16.9-.19,1.25-.09.36.09.67.28.91.55.24.27.43.61.56,1.02.15.4.24.82.3,1.27.02.21.03.44.03.69.01.25,0,.5-.01.75-.01.25-.03.49-.06.72-.02.23-.05.44-.09.62.25-.01.47-.04.67-.09.2-.06.38-.13.55-.2.17-.08.32-.17.47-.27.16-.09.31-.18.47-.27.2-.1.36-.11.48-.03.14.07.22.19.27.34.05.16.06.33.03.52-.02.18-.09.32-.2.42-.5.46-1.05.79-1.64,1-.59.2-1.2.3-1.81.3-.41.72-.93,1.27-1.56,1.64-.64.36-1.33.55-2.08.56-.7.01-1.29-.13-1.77-.42-.48-.29-.86-.67-1.14-1.14-.28-.47-.47-1-.56-1.59-.08-.6-.08-1.21,0-1.81.09-.61.27-1.21.53-1.78.27-.58.62-1.09,1.03-1.52.42-.43.91-.75,1.47-.97.57-.23,1.21-.3,1.92-.2Zm-1.12,1.8c-.33.07-.64.26-.92.56-.28.29-.52.65-.72,1.06-.2.41-.34.85-.42,1.33-.08.48-.09.93-.03,1.36.07.42.23.78.48,1.09.25.31.61.52,1.08.61.17.03.35.02.56-.05.21-.06.41-.16.61-.28s.38-.27.53-.44c.17-.18.29-.35.38-.53-.29-.18-.54-.39-.75-.64-.2-.25-.37-.53-.51-.83-.23-.5-.36-1.03-.41-1.59-.04-.57,0-1.12.12-1.66Zm1.94.08c-.29.18-.46.43-.5.75-.03.31,0,.64.09.97.09.32.22.61.39.88.17.26.31.42.42.48.06-.05.11-.17.14-.36.04-.2.07-.42.08-.67.01-.25,0-.51-.02-.78-.02-.27-.06-.51-.11-.72-.05-.21-.12-.36-.2-.47-.08-.11-.18-.14-.3-.08Zm4.17-5.52c.15-.26.33-.43.55-.5.23-.07.44-.08.64-.02s.36.18.49.34c.12.17.16.36.09.58l-.97,10.38c.45-.03.89-.12,1.31-.27.43-.16.84-.35,1.23-.58.4-.24.77-.51,1.12-.8.37-.29.7-.59,1.02-.89.17-.08.31-.05.44.09.14.15.23.33.28.56.06.22.07.45.03.69-.03.24-.13.41-.3.52-.22.17-.46.35-.73.56-.27.2-.55.39-.83.58-.27.18-.54.34-.8.48-.26.15-.49.24-.67.3.31.34.56.78.73,1.31.18.53.29,1.09.33,1.69.04.6.01,1.2-.09,1.8-.09.59-.26,1.11-.5,1.56-.24.46-.55.82-.94,1.08-.39.26-.84.35-1.38.28-.5-.06-.91-.26-1.22-.58-.3-.32-.54-.72-.7-1.19-.17-.46-.28-.97-.33-1.55-.05-.56-.07-1.12-.06-1.69,0-.55.04-1.08.08-1.59.03-.5.05-.92.06-1.27,0-.2.02-.57.06-1.12.04-.55.09-1.2.14-1.95.06-.75.13-1.56.2-2.42.08-.86.16-1.7.23-2.52.08-.81.16-1.56.23-2.25.08-.69.16-1.23.24-1.62Zm1.14,17.72c.28-.01.52-.14.7-.39.19-.24.32-.54.41-.89.09-.35.13-.74.11-1.17-.02-.42-.09-.81-.22-1.17-.12-.36-.31-.68-.55-.95-.23-.26-.52-.41-.88-.45-.02.18-.05.43-.09.75-.03.32-.06.67-.09,1.05-.02.38-.04.76-.05,1.14,0,.39.02.73.05,1.05.04.31.11.57.2.77.09.2.23.29.41.28Zm4.52-17.72c.15-.26.33-.43.55-.5.23-.07.44-.08.64-.02.2.06.36.18.49.34.12.17.16.36.09.58l-.97,10.38c.45-.03.89-.12,1.31-.27.43-.16.84-.35,1.24-.58.4-.24.77-.51,1.12-.8.36-.29.7-.59,1.01-.89.17-.08.31-.05.44.09.14.15.23.33.28.56.06.22.07.45.03.69-.03.24-.13.41-.3.52-.22.17-.46.35-.73.56-.27.2-.55.39-.83.58-.27.18-.54.34-.8.48-.26.15-.48.24-.67.3.31.34.56.78.74,1.31.18.53.29,1.09.33,1.69.04.6,0,1.2-.09,1.8-.09.59-.26,1.11-.5,1.56-.24.46-.55.82-.94,1.08-.38.26-.84.35-1.38.28-.5-.06-.91-.26-1.22-.58-.3-.32-.54-.72-.7-1.19-.17-.46-.28-.97-.33-1.55-.05-.56-.07-1.12-.06-1.69.01-.55.04-1.08.08-1.59.03-.5.05-.92.06-1.27,0-.2.02-.57.06-1.12.04-.55.09-1.2.14-1.95.06-.75.13-1.56.2-2.42.08-.86.16-1.7.23-2.52.08-.81.16-1.56.24-2.25.08-.69.16-1.23.23-1.62Zm1.14,17.72c.28-.01.51-.14.7-.39.19-.24.32-.54.41-.89.09-.35.13-.74.11-1.17-.02-.42-.09-.81-.22-1.17-.12-.36-.31-.68-.55-.95-.23-.26-.52-.41-.88-.45-.02.18-.05.43-.09.75-.03.32-.06.67-.09,1.05-.02.38-.04.76-.05,1.14,0,.39.02.73.05,1.05.04.31.11.57.2.77.09.2.23.29.41.28Zm9.06-12.14c-.02.52-.11,1.05-.28,1.58-.17.52-.41.99-.74,1.42-.32.42-.72.76-1.19,1.02-.46.25-.98.35-1.58.31.01.32.05.64.11.94.06.3.16.56.3.78.15.21.34.36.58.45.24.08.54.07.91-.05.37-.1.71-.28,1.05-.52.33-.24.63-.52.89-.83.27-.31.49-.64.67-.98.19-.35.32-.7.41-1.03.04-.18.14-.29.3-.33.16-.04.32-.04.48.02.18.05.32.15.44.28.12.12.17.27.12.44-.23.6-.46,1.14-.69,1.61-.22.47-.46.89-.73,1.25-.27.35-.58.66-.92.91-.33.25-.73.46-1.19.62-.62.22-1.18.31-1.7.28-.52-.02-.97-.16-1.36-.41-.39-.25-.69-.6-.92-1.06-.22-.46-.34-1.02-.38-1.67-.02-.31-.03-.69-.03-1.12.01-.45.04-.91.09-1.39.05-.49.13-.98.25-1.48.11-.5.27-.96.47-1.39.2-.44.44-.82.74-1.14.3-.33.67-.57,1.09-.72.35-.12.7-.17,1.05-.14.34.03.65.14.91.33.27.19.48.45.64.8.16.33.23.74.22,1.23Zm-1.97-.41c-.15-.09-.29-.1-.44-.02-.14.07-.27.2-.39.39-.12.18-.23.39-.33.64-.09.25-.17.51-.23.78-.06.26-.11.51-.14.75-.03.24-.04.43-.02.58.48-.09.86-.29,1.14-.59.28-.3.47-.62.58-.97.11-.34.15-.67.11-.97-.03-.3-.13-.5-.28-.59Zm8.27.41c-.02.52-.12,1.05-.28,1.58-.17.52-.41.99-.74,1.42-.32.42-.72.76-1.19,1.02-.46.25-.99.35-1.58.31.01.32.05.64.11.94.06.3.16.56.3.78.15.21.34.36.58.45.24.08.54.07.91-.05.37-.1.71-.28,1.05-.52.33-.24.63-.52.89-.83.27-.31.49-.64.67-.98.19-.35.32-.7.41-1.03.04-.18.14-.29.3-.33.16-.04.32-.04.48.02.18.05.32.15.44.28.12.12.17.27.12.44-.23.6-.46,1.14-.69,1.61-.22.47-.46.89-.73,1.25-.27.35-.58.66-.92.91-.33.25-.73.46-1.19.62-.61.22-1.18.31-1.7.28-.52-.02-.97-.16-1.36-.41s-.69-.6-.92-1.06c-.22-.46-.34-1.02-.38-1.67-.02-.31-.03-.69-.03-1.12.01-.45.04-.91.09-1.39.05-.49.13-.98.25-1.48.11-.5.27-.96.47-1.39.2-.44.44-.82.74-1.14.3-.33.67-.57,1.09-.72.35-.12.7-.17,1.05-.14.34.03.65.14.91.33.27.19.48.45.64.8.16.33.23.74.22,1.23Zm-1.97-.41c-.15-.09-.29-.1-.44-.02-.14.07-.27.2-.39.39-.12.18-.23.39-.33.64s-.17.51-.23.78c-.06.26-.11.51-.14.75-.03.24-.04.43-.02.58.48-.09.86-.29,1.14-.59s.47-.62.58-.97c.11-.34.15-.67.11-.97-.03-.3-.12-.5-.28-.59Z"/>
</svg>