<?xml version="1.0" encoding="UTF-8"?>
<svg id="_图层_1" data-name="图层 1" xmlns="http://www.w3.org/2000/svg" viewBox="0 0 27.63 40">
  <defs>
    <style>
      .cls-1 {
        fill: #0d0c22;
      }

      .cls-1, .cls-2 {
        stroke-width: 0px;
      }

      .cls-2 {
        fill: #fd0;
      }
    </style>
  </defs>
  <path class="cls-1" d="m24.74,9.3l-.03-.02-.06-.02s.06.03.09.04Z"/>
  <path class="cls-1" d="m25.14,12.16h-.03s.03,0,.03,0Z"/>
  <path class="cls-1" d="m24.75,9.3s0,0-.01,0c0,0,0,0,0,0,0,0,0,0,.01,0Z"/>
  <path class="cls-1" d="m24.74,9.31h0s0,0,0,0Z"/>
  <path class="cls-1" d="m25.12,12.16l.05-.03h.02s.02-.03.02-.03c-.03.01-.06.03-.08.05Z"/>
  <path class="cls-1" d="m24.82,9.37l-.05-.04-.03-.02s.04.05.08.06Z"/>
  <path class="cls-1" d="m13.45,37.1s-.07.04-.09.07l.03-.02s.05-.04.06-.05Z"/>
  <path class="cls-1" d="m20.05,35.8s-.02-.03-.02.11c0-.01,0-.02,0-.03,0-.03,0-.05,0-.08Z"/>
  <path class="cls-1" d="m19.37,37.1s-.07.04-.09.07l.03-.02s.05-.04.06-.05Z"/>
  <path class="cls-1" d="m8.8,37.41s-.06-.04-.1-.05c.03.01.06.03.08.04h.02Z"/>
  <path class="cls-1" d="m7.75,36.4s-.02-.08-.04-.12c.01.04.03.08.04.12h0Z"/>
  <path class="cls-2" d="m14.78,18.48c-1.44.62-3.07,1.31-5.18,1.31-.88,0-1.76-.12-2.62-.36l1.46,15.01c.05.63.34,1.21.8,1.64.46.43,1.07.66,1.7.66,0,0,2.07.11,2.76.11.74,0,2.98-.11,2.98-.11.63,0,1.24-.24,1.7-.66.46-.43.75-1.01.8-1.64l1.57-16.58c-.7-.24-1.41-.4-2.2-.4-1.38,0-2.49.47-3.77,1.02Z"/>
  <path class="cls-1" d="m2.46,12.08l.02.02h.02s-.03-.01-.04-.02Z"/>
  <path class="cls-1" d="m27.51,10.69l-.22-1.11c-.2-1-.65-1.94-1.67-2.3-.33-.12-.7-.16-.95-.4-.25-.24-.33-.61-.38-.95-.11-.63-.21-1.26-.32-1.89-.1-.54-.17-1.15-.42-1.64-.32-.67-.99-1.06-1.66-1.31-.34-.13-.69-.24-1.04-.32-1.66-.44-3.41-.6-5.13-.69-2.06-.11-4.12-.08-6.17.1-1.53.14-3.13.31-4.58.83-.53.19-1.08.43-1.48.83-.49.5-.66,1.28-.29,1.91.26.45.69.76,1.15.97.6.27,1.23.47,1.87.61,1.79.4,3.65.55,5.48.62,2.03.08,4.06.02,6.08-.2.5-.05,1-.12,1.5-.2.59-.09.96-.86.79-1.39-.21-.64-.76-.89-1.39-.79-.09.01-.18.03-.28.04h-.07c-.21.04-.43.06-.64.09-.44.05-.88.09-1.32.12-.99.07-1.98.1-2.97.1-.97,0-1.95-.03-2.92-.09-.44-.03-.89-.07-1.33-.11-.2-.02-.4-.04-.6-.07l-.19-.02h-.04s-.2-.03-.2-.03c-.4-.06-.81-.13-1.21-.22-.04,0-.08-.03-.1-.06-.03-.03-.04-.07-.04-.11s.01-.08.04-.11c.03-.03.06-.05.1-.06h0c.35-.07.69-.14,1.04-.19.12-.02.23-.04.35-.05h0c.22-.01.44-.05.66-.08,1.9-.2,3.8-.26,5.71-.2.93.03,1.85.08,2.77.17.2.02.39.04.59.07.08,0,.15.02.23.03l.15.02c.45.07.89.15,1.33.24.65.14,1.49.19,1.78.9.09.23.13.48.19.72l.07.3s0,.01,0,.02c.15.72.31,1.43.46,2.15.01.05.01.11,0,.16-.01.05-.03.1-.06.15-.03.04-.07.08-.12.11-.05.03-.1.05-.15.05h-.1s-.09.03-.09.03c-.29.04-.59.07-.89.11-.58.07-1.17.12-1.75.17-1.16.1-2.32.16-3.49.19-.59.02-1.19.02-1.78.02-2.36,0-4.72-.14-7.07-.41-.25-.03-.51-.06-.76-.1.2.03-.14-.02-.21-.03-.16-.02-.32-.05-.48-.07-.54-.08-1.08-.18-1.62-.27-.65-.11-1.28-.05-1.87.27-.49.27-.88.67-1.13,1.17-.26.53-.33,1.1-.45,1.67-.11.57-.29,1.18-.22,1.76.14,1.26,1.02,2.28,2.28,2.5,1.19.22,2.38.39,3.58.54,4.7.58,9.45.64,14.17.21.38-.04.77-.07,1.15-.12.12-.01.24,0,.35.04.11.04.22.1.3.19.09.08.15.19.19.3.04.11.06.23.04.35l-.12,1.16c-.24,2.35-.48,4.69-.72,7.04-.25,2.46-.5,4.93-.76,7.39-.07.69-.14,1.39-.22,2.08-.07.68-.08,1.39-.21,2.06-.2,1.06-.92,1.71-1.97,1.95-.96.22-1.94.33-2.93.34-1.09,0-2.18-.04-3.27-.04-1.17,0-2.59-.1-3.49-.97-.79-.76-.9-1.95-1.01-2.99-.14-1.37-.29-2.73-.43-4.1l-.79-7.59-.51-4.91c0-.08-.02-.16-.03-.24-.06-.59-.48-1.16-1.13-1.13-.56.02-1.2.5-1.13,1.13l.38,3.64.78,7.53c.22,2.14.45,4.28.67,6.42.04.41.08.82.13,1.23.25,2.24,1.96,3.45,4.08,3.79,1.24.2,2.51.24,3.76.26,1.61.03,3.24.09,4.82-.2,2.35-.43,4.11-2,4.36-4.43.07-.7.14-1.4.22-2.11.24-2.32.48-4.64.71-6.97l.78-7.59.36-3.48c.02-.17.09-.33.21-.46.12-.13.27-.21.44-.25.67-.13,1.31-.35,1.79-.86.76-.81.91-1.87.64-2.94Zm-25.24.75s0,.08-.02.12c0-.06,0-.12.02-.12Zm.07.5s.02.02.04.04c-.03-.02-.04-.04-.04-.04h0Zm.06.08s.04.06,0,0h0Zm.13.1h0s0,0,0,.01c0,0,0,0-.01-.01h0Zm22.52-.16c-.24.23-.6.34-.96.39-4.03.6-8.11.9-12.18.77-2.91-.1-5.79-.42-8.68-.83-.28-.04-.59-.09-.78-.3-.37-.39-.19-1.18-.09-1.66.09-.43.25-1.01.77-1.08.81-.09,1.74.25,2.54.37.96.15,1.93.26,2.9.35,4.13.38,8.34.32,12.45-.23.75-.1,1.5-.22,2.24-.35.66-.12,1.4-.34,1.8.34.27.47.31,1.09.27,1.62-.01.23-.11.45-.28.61h0Z"/>
</svg>